{"title":"Face.Off.Game.Face.S01E01.Sy-Borg.Showdown.WEBRip.x264-Sporc.mkv","magnet":"magnet:?xt=urn:btih:f71ea49e96dec08bc247c1c2ce577e169ceef118&dn=Face.Off.Game.Face.S01E01.Sy-Borg.Showdown.WEBRip.x264-Sporc.mkv&tr=udp%3A%2F%2Ftracker.leechers-paradise.org%3A6969&tr=udp%3A%2F%2Fzer0day.ch%3A1337&tr=udp%3A%2F%2Fopen.demonii.com%3A1337&tr=udp%3A%2F%2Ftracker.coppersurfer.tk%3A6969&tr=udp%3A%2F%2Fexodus.desync.com%3A6969","uploader":"Scorpwanna","categoryP":"video","categoryS":"tv_shows","size":"290299397","seeders":"13","leechers":"3","description":"File Name: Face.Off.Game.Face.S01E01.Sy-Borg.Showdown.WEBRip.x264-Sporc.mkv\r\n\r\nFormat                                   : Matroska\r\nFormat version                           : Version 4 / Version 2\r\nFile size                                : 277 MiB\r\nDuration                                 : 43 min 3 s\r\nOverall bit rate                         : 899 kb/s\r\nEncoded date                             : UTC 2017-12-21 23:07:27\r\nWriting application                      : mkvmerge v12.0.0 (&apos;Trust / Lust&apos;) 64bit\r\nWriting library                          : libebml v1.3.4 + libmatroska v1.4.5\r\n\r\nVideo\r\nID                                       : 1\r\nFormat                                   : AVC\r\nFormat/Info                              : Advanced Video Codec\r\nFormat profile                           : <a href=\"/cdn-cgi/l/email-protection\" class=\"__cf_email__\" data-cfemail=\"e5ad8c828da5a9d6\">[email&#xA0;protected]</a>\r\nFormat settings                          : CABAC / 4 Ref Frames\r\nFormat settings, CABAC                   : Yes\r\nFormat settings, RefFrames               : 4 frames\r\nCodec ID                                 : V_MPEG4/ISO/AVC\r\nDuration                                 : 43 min 3 s\r\nBit rate                                 : 800 kb/s\r\nWidth                                    : 720 pixels\r\nHeight                                   : 404 pixels\r\nDisplay aspect ratio                     : 16:9\r\nFrame rate mode                          : Constant\r\nFrame rate                               : 29.970 (30000/1001) FPS\r\nColor space                              : YUV\r\nChroma subsampling                       : 4:2:0\r\nBit depth                                : 8 bits\r\nScan type                                : Progressive\r\nBits/(Pixel*Frame)                       : 0.092\r\nStream size                              : 247 MiB (89%)\r\nWriting library                          : x264 core 148 r2694bm 3b70645\r\nLanguage                                 : English\r\nDefault                                  : Yes\r\nForced                                   : No\r\n\r\nAudio\r\nID                                       : 2\r\nFormat                                   : AAC\r\nFormat/Info                              : Advanced Audio Codec\r\nFormat profile                           : LC\r\nCodec ID                                 : A_AAC-2\r\nDuration                                 : 43 min 3 s\r\nBit rate                                 : 96.0 kb/s\r\nChannel(s)                               : 2 channels\r\nChannel positions                        : Front: L R\r\nSampling rate                            : 44.1 kHz\r\nFrame rate                               : 43.066 FPS (1024 SPF)\r\nCompression mode                         : Lossy\r\nStream size                              : 29.5 MiB (11%)\r\nLanguage                                 : English\r\nDefault                                  : Yes\r\nForced                                   : No\r\n\r\nNote: Sourced from the 605mb file floating around by CookieMonster. Attempted to lower the frame rate down to NTSC 23.976 but wasn&apos;t happy with the results so I kept it the same as source (NTSC 29.970). Once you get the file, please seed it! Why create this? Because I like small file sizes and I don&apos;t really care for large ones if I can still get the same experience with a small one","last_updated":"2017-12-22T12:07:35.015Z","parsed":{"xt":"urn:btih:f71ea49e96dec08bc247c1c2ce577e169ceef118","dn":"Face.Off.Game.Face.S01E01.Sy-Borg.Showdown.WEBRip.x264-Sporc.mkv","tr":["udp://exodus.desync.com:6969","udp://open.demonii.com:1337","udp://tracker.coppersurfer.tk:6969","udp://tracker.leechers-paradise.org:6969","udp://zer0day.ch:1337"],"infoHash":"f71ea49e96dec08bc247c1c2ce577e169ceef118","infoHashBuffer":{"type":"Buffer","data":[247,30,164,158,150,222,192,139,194,71,193,194,206,87,126,22,156,238,241,24]},"name":"Face.Off.Game.Face.S01E01.Sy-Borg.Showdown.WEBRip.x264-Sporc.mkv","announce":["udp://exodus.desync.com:6969","udp://open.demonii.com:1337","udp://tracker.coppersurfer.tk:6969","udp://tracker.leechers-paradise.org:6969","udp://zer0day.ch:1337"],"urlList":[]}}